HIERARCHY
ROOT Hips
{
	OFFSET 0.00 0.00 0.00
	CHANNELS 6 Xposition Yposition Zposition Xrotation Zrotation Yrotation
	JOINT Spine
	{
		OFFSET	-0.0000	9.2263	1.5771
		CHANNELS 3 Xrotation Yrotation Zrotation
		JOINT Spine1
		{
			OFFSET	0.0000	16.2540	-0.1656
			CHANNELS 3 Xrotation Yrotation Zrotation
			JOINT Spine2
			{
				OFFSET	0.0000	13.6396	-1.2923
				CHANNELS 3 Xrotation Yrotation Zrotation
				JOINT Neck
				{
					OFFSET	0.0000	13.8774	-4.3542
					CHANNELS 3 Xrotation Yrotation Zrotation
					JOINT Neck1
					{
						OFFSET	0.0000	4.3400	0.9269
						CHANNELS 3 Xrotation Yrotation Zrotation
						JOINT Head
						{
							OFFSET	0.0000	4.0266	0.8585
							CHANNELS 3 Xrotation Yrotation Zrotation
							JOINT HeadTop_End
							{
								OFFSET	0.0000	21.0545	4.8205
								CHANNELS 3 Zrotation Yrotation Xrotation
								End Site
								{
									OFFSET 0.0000 0.0000 0.0000
								}
							}
							JOINT L_Ear
							{
								OFFSET	6.8586	8.8620	3.3161
								CHANNELS 3 Zrotation Yrotation Xrotation
								End Site
								{
									OFFSET 0.0000 0.0000 0.0000
								}
							}
							JOINT Jaw
							{
								OFFSET	0.0038	6.2350	4.4131
								CHANNELS 3 Zrotation Yrotation Xrotation
								JOINT TongueBack
								{
									OFFSET	0.0000	-3.4114	4.6032
									CHANNELS 3 Zrotation Yrotation Xrotation
									JOINT TongueMid
									{
										OFFSET	0.0000	0.0209	1.6663
										CHANNELS 3 Zrotation Yrotation Xrotation
										End Site
										{
											OFFSET -0.0000 -0.4509 1.2790
										}
									}
								}
								JOINT Chin
								{
									OFFSET	-0.0038	-6.2776	9.0439
									CHANNELS 3 Zrotation Yrotation Xrotation
									End Site
									{
										OFFSET 0.0000 0.0000 0.0000
									}
								}
								JOINT LowerChin
								{
									OFFSET	-0.0038	-8.3551	5.8970
									CHANNELS 3 Zrotation Yrotation Xrotation
									End Site
									{
										OFFSET 0.0000 0.0000 0.0000
									}
								}
							}
							JOINT L_Temple
							{
								OFFSET	6.7164	11.9530	7.4033
								CHANNELS 3 Zrotation Yrotation Xrotation
								End Site
								{
									OFFSET 0.0000 0.0000 0.0000
								}
							}
							JOINT L_IOuterBrow
							{
								OFFSET	5.1850	11.3348	12.3701
								CHANNELS 3 Xrotation Yrotation Zrotation
								End Site
								{
									OFFSET 0.0000 0.0000 0.0000
								}
							}
							JOINT L_MidBrow
							{
								OFFSET	3.3668	11.4156	13.6166
								CHANNELS 3 Zrotation Yrotation Xrotation
								End Site
								{
									OFFSET 0.0000 0.0000 0.0000
								}
							}
							JOINT L_InnerBrow
							{
								OFFSET	1.6599	10.7576	14.1150
								CHANNELS 3 Zrotation Yrotation Xrotation
								End Site
								{
									OFFSET 0.0000 0.0000 0.0000
								}
							}
							JOINT L_Eye
							{
								OFFSET	3.0989	9.6989	11.4382
								CHANNELS 3 Zrotation Yrotation Xrotation
								End Site
								{
									OFFSET 0.0000 0.0000 0.0000
								}
							}
							JOINT L_EyelidLower
							{
								OFFSET	3.0989	9.6989	11.4382
								CHANNELS 3 Zrotation Yrotation Xrotation
								End Site
								{
									OFFSET 0.0000 0.0000 0.0000
								}
							}
							JOINT L_EyelidUpper
							{
								OFFSET	3.0989	9.6989	11.4382
								CHANNELS 3 Zrotation Yrotation Xrotation
								End Site
								{
									OFFSET 0.0000 0.0000 0.0000
								}
							}
							JOINT L_InnerCheek
							{
								OFFSET	2.1484	7.4937	13.4347
								CHANNELS 3 Zrotation Yrotation Xrotation
								End Site
								{
									OFFSET 0.0000 0.0000 0.0000
								}
							}
							JOINT L_LowerCheek
							{
								OFFSET	4.3527	2.5675	9.9423
								CHANNELS 3 Zrotation Yrotation Xrotation
								End Site
								{
									OFFSET 0.0000 0.0000 0.0000
								}
							}
							JOINT L_LipLower
							{
								OFFSET	1.2586	2.3762	13.5915
								CHANNELS 3 Zrotation Yrotation Xrotation
								End Site
								{
									OFFSET 0.0000 0.0000 0.0000
								}
							}
							JOINT L_LipUpper
							{
								OFFSET	1.2981	3.1535	13.8987
								CHANNELS 3 Zrotation Yrotation Xrotation
								End Site
								{
									OFFSET 0.0000 0.0000 0.0000
								}
							}
							JOINT LipMidLower
							{
								OFFSET	-0.0000	2.4182	14.0113
								CHANNELS 3 Xrotation Yrotation Zrotation
								End Site
								{
									OFFSET 0.0000 0.0000 0.0000
								}
							}
							JOINT LipMidUpper
							{
								OFFSET	-0.0000	3.2177	14.3127
								CHANNELS 3 Zrotation Yrotation Xrotation
								End Site
								{
									OFFSET 0.0000 0.0000 0.0000
								}
							}
							JOINT L_CheekFold
							{
								OFFSET	2.8997	4.8397	12.9905
								CHANNELS 3 Zrotation Yrotation Xrotation
								End Site
								{
									OFFSET 0.0000 0.0000 0.0000
								}
							}
							JOINT L_Nostril
							{
								OFFSET	1.2793	5.2449	14.0405
								CHANNELS 3 Zrotation Yrotation Xrotation
								End Site
								{
									OFFSET 0.0000 0.0000 0.0000
								}
							}
							JOINT Scalp
							{
								OFFSET	0.0038	15.5120	8.5871
								CHANNELS 3 Zrotation Yrotation Xrotation
								End Site
								{
									OFFSET 0.0000 0.0000 0.0000
								}
							}
							JOINT L_OuterCheek
							{
								OFFSET	4.8050	7.1686	11.6790
								CHANNELS 3 Zrotation Yrotation Xrotation
								End Site
								{
									OFFSET 0.0000 0.0000 0.0000
								}
							}
							JOINT R_LipLower
							{
								OFFSET	-1.2586	2.3762	13.5915
								CHANNELS 3 Zrotation Yrotation Xrotation
								End Site
								{
									OFFSET 0.0000 0.0000 0.0000
								}
							}
							JOINT RightNostril
							{
								OFFSET	-1.2793	5.2449	14.0405
								CHANNELS 3 Zrotation Yrotation Xrotation
								End Site
								{
									OFFSET 0.0000 0.0000 0.0000
								}
							}
							JOINT R_CheekFold
							{
								OFFSET	-2.8997	4.8397	12.9905
								CHANNELS 3 Zrotation Yrotation Xrotation
								End Site
								{
									OFFSET 0.0000 0.0000 0.0000
								}
							}
							JOINT R_LowerCheek
							{
								OFFSET	-4.3527	2.5675	9.9423
								CHANNELS 3 Zrotation Yrotation Xrotation
								End Site
								{
									OFFSET 0.0000 0.0000 0.0000
								}
							}
							JOINT R_LipUpper
							{
								OFFSET	-1.2981	3.1535	13.8987
								CHANNELS 3 Zrotation Yrotation Xrotation
								End Site
								{
									OFFSET 0.0000 0.0000 0.0000
								}
							}
							JOINT R_OuterCheek
							{
								OFFSET	-4.8050	7.1686	11.6790
								CHANNELS 3 Zrotation Yrotation Xrotation
								End Site
								{
									OFFSET 0.0000 0.0000 0.0000
								}
							}
							JOINT MidBrows
							{
								OFFSET	-0.0000	10.8004	14.2738
								CHANNELS 3 Zrotation Yrotation Xrotation
								End Site
								{
									OFFSET 0.0000 0.0000 0.0000
								}
							}
							JOINT R_InnerBrow
							{
								OFFSET	-1.6599	10.7576	14.1150
								CHANNELS 3 Zrotation Yrotation Xrotation
								End Site
								{
									OFFSET 0.0000 0.0000 0.0000
								}
							}
							JOINT R_MidBrow
							{
								OFFSET	-3.3668	11.4156	13.6166
								CHANNELS 3 Zrotation Yrotation Xrotation
								End Site
								{
									OFFSET 0.0000 0.0000 0.0000
								}
							}
							JOINT R_IOuterBrow
							{
								OFFSET	-5.1850	11.3348	12.3701
								CHANNELS 3 Xrotation Yrotation Zrotation
								End Site
								{
									OFFSET 0.0000 0.0000 0.0000
								}
							}
							JOINT R_Eye
							{
								OFFSET	-3.0989	9.6989	11.4382
								CHANNELS 3 Zrotation Yrotation Xrotation
								End Site
								{
									OFFSET 0.0000 0.0000 0.0000
								}
							}
							JOINT R_EyelidLower
							{
								OFFSET	-3.0989	9.6989	11.4382
								CHANNELS 3 Zrotation Yrotation Xrotation
								End Site
								{
									OFFSET 0.0000 0.0000 0.0000
								}
							}
							JOINT R_EyelidUpper
							{
								OFFSET	-3.0989	9.6989	11.4382
								CHANNELS 3 Zrotation Yrotation Xrotation
								End Site
								{
									OFFSET 0.0000 0.0000 0.0000
								}
							}
							JOINT R_Temple
							{
								OFFSET	-6.7164	11.9530	7.4033
								CHANNELS 3 Zrotation Yrotation Xrotation
								End Site
								{
									OFFSET 0.0000 0.0000 0.0000
								}
							}
							JOINT R_Ear
							{
								OFFSET	-6.8586	8.8620	3.3161
								CHANNELS 3 Zrotation Yrotation Xrotation
								End Site
								{
									OFFSET 0.0000 0.0000 0.0000
								}
							}
							JOINT R_InnerCheek
							{
								OFFSET	-2.1484	7.4937	13.4347
								CHANNELS 3 Zrotation Yrotation Xrotation
								End Site
								{
									OFFSET 0.0000 0.0000 0.0000
								}
							}
							JOINT L_LipCorner
							{
								OFFSET	2.9076	2.9095	12.5938
								CHANNELS 3 Zrotation Yrotation Xrotation
								JOINT L_LipCornerLowTweak
								{
									OFFSET	-0.8072	-0.3254	0.4546
									CHANNELS 3 Zrotation Yrotation Xrotation
									End Site
									{
										OFFSET 0.0000 0.0000 0.0000
									}
								}
								JOINT L_LipCornerUpTweak
								{
									OFFSET	-0.7251	0.0237	0.5782
									CHANNELS 3 Zrotation Yrotation Xrotation
									End Site
									{
										OFFSET 0.0000 0.0000 0.0000
									}
								}
							}
							JOINT R_gLipCorner
							{
								OFFSET	-2.9076	2.9095	12.5938
								CHANNELS 3 Zrotation Yrotation Xrotation
								JOINT R_gLipCornerUpTweak
								{
									OFFSET	0.7251	0.0237	0.5782
									CHANNELS 3 Zrotation Yrotation Xrotation
									End Site
									{
										OFFSET 0.0000 0.0000 0.0000
									}
								}
								JOINT R_gLipCornerLowTweak
								{
									OFFSET	0.8072	-0.3254	0.4546
									CHANNELS 3 Zrotation Yrotation Xrotation
									End Site
									{
										OFFSET 0.0000 0.0000 0.0000
									}
								}
							}
						}
						JOINT Throat
						{
							OFFSET	-0.0000	-0.6141	8.3185
							CHANNELS 3 Zrotation Yrotation Xrotation
							End Site
							{
								OFFSET 0.0000 0.0000 0.0000
							}
						}
					}
				}
				JOINT LeftShoulder
				{
					OFFSET	6.1442	10.1870	-3.7932
					CHANNELS 3 Zrotation Xrotation Yrotation
					JOINT LeftArm
					{
						OFFSET	12.3191	-1.1130	-1.7935
						CHANNELS 3 Zrotation Xrotation Yrotation
						JOINT LeftForeArm
						{
							OFFSET	27.6870	0.0000	0.0000
							CHANNELS 3 Yrotation Zrotation Xrotation
							JOINT LeftHand
							{
								OFFSET	27.8738	0.0000	0.0000
								CHANNELS 3 Zrotation Yrotation Xrotation
								JOINT LeftHandThumb1
								{
									OFFSET	2.3785	-1.0029	2.6209
									CHANNELS 3 Zrotation Xrotation Yrotation
									JOINT LeftHandThumb2
									{
										OFFSET	3.3624	-1.0029	2.8398
										CHANNELS 3 Zrotation Xrotation Yrotation
										JOINT LeftHandThumb3
										{
											OFFSET	4.5018	-1.3445	2.1783
											CHANNELS 3 Zrotation Xrotation Yrotation
											End Site
											{
												OFFSET 2.6000 -1.0000 1.0000
											}
										}
									}
								}
								JOINT LeftHandMiddle1
								{
									OFFSET	10.4639	0.6148	0.4298
									CHANNELS 3 Zrotation Yrotation Xrotation
									JOINT LeftHandMiddle2
									{
										OFFSET	5.7921	0.0000	0.0000
										CHANNELS 3 Zrotation Yrotation Xrotation
										JOINT LeftHandMiddle3
										{
											OFFSET	3.7132	0.0000	0.0000
											CHANNELS 3 Zrotation Yrotation Xrotation
											End Site
											{
												OFFSET 2.3000 0.0000 0.0000
											}
										}
									}
								}
								JOINT LeftHandIndex1
								{
									OFFSET	10.3945	0.6148	2.7055
									CHANNELS 3 Zrotation Yrotation Xrotation
									JOINT LeftHandIndex2
									{
										OFFSET	5.5493	-0.0000	0.0000
										CHANNELS 3 Zrotation Yrotation Xrotation
										JOINT LeftHandIndex3
										{
											OFFSET	3.3911	-0.0000	-0.0000
											CHANNELS 3 Zrotation Yrotation Xrotation
											End Site
											{
												OFFSET 2.5000 0.0000 0.0000
											}
										}
									}
								}
								JOINT LeftHandRing1
								{
									OFFSET	10.3252	0.3211	-1.8755
									CHANNELS 3 Zrotation Yrotation Xrotation
									JOINT LeftHandRing2
									{
										OFFSET	5.4452	-0.0000	0.0000
										CHANNELS 3 Zrotation Yrotation Xrotation
										JOINT LeftHandRing3
										{
											OFFSET	3.7132	0.0000	0.0000
											CHANNELS 3 Zrotation Yrotation Xrotation
											End Site
											{
												OFFSET 2.0000 -0.0000 0.0000
											}
										}
									}
								}
								JOINT LeftHandPinky1
								{
									OFFSET	10.0130	-0.0783	-3.9671
									CHANNELS 3 Zrotation Yrotation Xrotation
									JOINT LeftHandPinky2
									{
										OFFSET	3.6763	0.0000	0.0000
										CHANNELS 3 Zrotation Yrotation Xrotation
										JOINT LeftHandPinky3
										{
											OFFSET	2.8113	0.0000	0.0000
											CHANNELS 3 Zrotation Yrotation Xrotation
											End Site
											{
												OFFSET 2.9000 0.0000 0.0000
											}
										}
									}
								}
							}
						}
					}
				}
				JOINT RightShoulder
				{
					OFFSET	-6.1402	10.1870	-3.7932
					CHANNELS 3 Zrotation Xrotation Yrotation
					JOINT RightArm
					{
						OFFSET	-12.3231	-1.1130	-1.7935
						CHANNELS 3 Zrotation Xrotation Yrotation
						JOINT RightForeArm
						{
							OFFSET	-27.6870	0.0000	0.0000
							CHANNELS 3 Yrotation Zrotation Xrotation
							JOINT RightHand
							{
								OFFSET	-27.8738	0.0000	0.0000
								CHANNELS 3 Zrotation Yrotation Xrotation
								JOINT RightHandThumb1
								{
									OFFSET	-2.5178	-0.9367	2.5137
									CHANNELS 3 Yrotation Xrotation Zrotation
									JOINT RightHandThumb2
									{
										OFFSET	-3.2638	-1.0870	2.9669
										CHANNELS 3 Zrotation Xrotation Yrotation
										JOINT RightHandThumb3
										{
											OFFSET	-4.4165	-1.3703	2.1350
											CHANNELS 3 Zrotation Xrotation Yrotation
											End Site
											{
												OFFSET -2.6000 -1.0000 1.0000
											}
										}
									}
								}
								JOINT RightHandIndex1
								{
									OFFSET	-10.4665	0.4896	2.7120
									CHANNELS 3 Zrotation Yrotation Xrotation
									JOINT RightHandIndex2
									{
										OFFSET	-5.3768	0.0000	0.0000
										CHANNELS 3 Zrotation Yrotation Xrotation
										JOINT RightHandIndex3
										{
											OFFSET	-3.3855	0.0000	-0.0000
											CHANNELS 3 Zrotation Yrotation Xrotation
											End Site
											{
												OFFSET -2.6000 0.0000 0.0000
											}
										}
									}
								}
								JOINT RightHandMiddle1
								{
									OFFSET	-10.7596	0.4896	0.4278
									CHANNELS 3 Zrotation Yrotation Xrotation
									JOINT RightHandMiddle2
									{
										OFFSET	-5.6168	0.0000	0.0000
										CHANNELS 3 Zrotation Yrotation Xrotation
										JOINT RightHandMiddle3
										{
											OFFSET	-3.7364	0.0000	0.0000
											CHANNELS 3 Zrotation Yrotation Xrotation
											End Site
											{
												OFFSET -2.3000 0.0000 0.0000
											}
										}
									}
								}
								JOINT RightHandRing1
								{
									OFFSET	-10.4702	0.3879	-1.9363
									CHANNELS 3 Zrotation Yrotation Xrotation
									JOINT RightHandRing2
									{
										OFFSET	-5.4013	0.0000	0.0000
										CHANNELS 3 Zrotation Yrotation Xrotation
										JOINT RightHandRing3
										{
											OFFSET	-3.3916	0.0000	0.0000
											CHANNELS 3 Zrotation Yrotation Xrotation
											End Site
											{
												OFFSET -2.2000 -0.0000 0.0000
											}
										}
									}
								}
								JOINT RightHandPinky1
								{
									OFFSET	-9.9715	-0.1191	-3.9540
									CHANNELS 3 Zrotation Yrotation Xrotation
									JOINT RightHandPinky2
									{
										OFFSET	-3.6528	0.0000	0.0000
										CHANNELS 3 Zrotation Yrotation Xrotation
										JOINT RightHandPinky3
										{
											OFFSET	-2.7820	-0.0000	0.0000
											CHANNELS 3 Zrotation Yrotation Xrotation
											End Site
											{
												OFFSET -2.9000 -0.0000 0.0000
											}
										}
									}
								}
							}
						}
					}
				}
			}
		}
	}
	JOINT LeftUpLeg
	{
		OFFSET	9.6338	-3.2733	-0.0000
		CHANNELS 3 Xrotation Yrotation Zrotation
		JOINT LeftLeg
		{
			OFFSET	0.0000	-41.7300	-1.7300
			CHANNELS 3 Xrotation Yrotation Zrotation
			JOINT LeftFoot
			{
				OFFSET	0.0126	-39.1900	-0.8477
				CHANNELS 3 Xrotation Yrotation Zrotation
				JOINT LeftToeBase
				{
					OFFSET	-0.1833	-12.1931	8.2823
					CHANNELS 3 Xrotation Yrotation Zrotation
					End Site
					{
						OFFSET 0.0000 0.0000 12.7000
					}
				}
			}
		}
	}
	JOINT RightUpLeg
	{
		OFFSET	-9.6338	-3.2733	-0.0000
		CHANNELS 3 Xrotation Yrotation Zrotation
		JOINT RightLeg
		{
			OFFSET	0.0000	-41.7300	-1.7300
			CHANNELS 3 Xrotation Yrotation Zrotation
			JOINT RightFoot
			{
				OFFSET	0.0126	-39.1900	-0.8477
				CHANNELS 3 Xrotation Yrotation Zrotation
				JOINT RightToeBase
				{
					OFFSET	-0.1833	-12.1931	8.2823
					CHANNELS 3 Xrotation Yrotation Zrotation
					End Site
					{
						OFFSET 0.0032 -0.0000 12.7000
					}
				}
			}
		}
	}
}
MOTION
Frames: 3
Frame Time: 0.0333333
-0.0000 95.7681 -0.0000 -3.4479 -3.3377 -5.2389 3.3047 1.5259 2.3198 1.1460 0.3292 1.5530 1.1237 0.3562 1.5509 5.6227 -0.0772 0.4639 -0.0000 0.0000 -0.0000 -7.5511 1.3747 -0.0844 0.0000 -0.0000 0.0000 0.0000 -0.0000 0.0000 0.0000 0.0000 -0.7385 0.0000 -0.0000 0.0000 0.0000 -0.0000 0.0000 0.0000 -0.0000 0.0000 0.0000 -0.0000 0.0000 0.0000 -0.0000 0.0000 -0.0000 0.0000 -0.0000 0.0000 -0.0000 0.0000 0.0000 -0.0000 0.0000 0.0000 -0.0000 0.0000 0.0000 -0.0000 0.0000 0.0000 -0.0000 0.0000 0.0000 -0.0000 0.0000 0.0000 -0.0000 0.0000 0.0000 -0.0000 0.0000 0.0000 -0.0000 0.0000 -0.0000 0.0000 -0.0000 0.0000 -0.0000 0.0000 0.0000 -0.0000 0.0000 0.0000 -0.0000 0.0000 0.0000 -0.0000 0.0000 0.0000 -0.0000 0.0000 0.0000 -0.0000 0.0000 0.0000 -0.0000 0.0000 0.0000 -0.0000 0.0000 0.0000 -0.0000 0.0000 0.0000 -0.0000 0.0000 0.0000 -0.0000 0.0000 0.0000 -0.0000 0.0000 0.0000 -0.0000 0.0000 0.0000 -0.0000 0.0000 -0.0000 0.0000 -0.0000 0.0000 -0.0000 0.0000 0.0000 -0.0000 0.0000 0.0000 -0.0000 0.0000 0.0000 -0.0000 0.0000 0.0000 -0.0000 0.0000 0.0000 -0.0000 0.0000 0.0000 -0.0000 0.0000 0.0000 -0.0000 0.0000 0.0000 -0.0000 0.0000 0.0000 -0.0000 0.0000 0.0000 -0.0000 0.0000 0.0000 -0.0000 0.0000 0.0000 -0.0000 0.0000 -11.7821 4.6909 -16.8540 -69.8751 20.0977 -3.2886 -1.4527 -0.0000 0.0000 -8.5182 -3.9521 -26.8271 -1.2570 4.7829 8.5740 14.3749 8.6071 13.9418 -4.3962 -7.3974 1.1549 -12.5306 -1.3305 0.0000 -17.4908 -0.0000 0.0000 -18.5030 -0.0000 0.0000 -4.1075 -4.0593 0.4337 -17.4620 -0.0000 -0.0000 -8.0804 -0.0000 0.0000 -18.0295 -0.8876 -0.0000 -21.0104 0.0000 0.0000 -17.9552 -0.0000 -0.0000 -24.1382 0.5632 -0.0509 -17.4915 0.0000 0.0000 -16.5872 -0.0000 0.0000 14.2270 5.0051 14.5710 61.3286 30.2115 2.5665 6.6898 0.0000 -0.0000 9.6737 0.3478 -15.3829 -8.4939 4.9212 0.5385 -12.8110 8.9349 -16.2732 0.8060 -9.7645 4.0763 4.1142 4.0652 0.4334 17.4671 -0.0000 0.0000 8.0855 0.0000 0.0000 12.5291 1.3249 0.0000 17.4919 -0.0000 0.0000 18.5040 0.0000 0.0000 18.0408 0.8890 0.0000 21.0119 0.0000 0.0000 17.9526 -0.0000 -0.0000 24.1375 -0.5637 -0.0465 17.4903 0.0000 -0.0000 16.5840 -0.0000 0.0000 -11.2453 14.6539 10.3511 13.9635 2.0215 4.2032 0.0608 0.6176 -7.4823 -4.9331 0.0000 0.0000 2.7219 -10.2832 3.6579 4.1430 -9.7215 -3.2748 -2.6284 -1.5820 2.8226 -7.2735 0.0000 0.0000 
-0.1770 95.6355 0.1330 -3.4134 -2.6853 -4.9528 3.2827 1.5331 1.9413 1.1393 0.3233 1.4319 1.1178 0.3491 1.4301 5.4438 -0.0280 0.4339 -0.0000 0.0000 -0.0000 -7.6967 1.5075 -0.0855 0.0000 -0.0000 0.0000 0.0000 -0.0000 0.0000 0.0000 0.0000 -0.7385 0.0000 -0.0000 0.0000 0.0000 -0.0000 0.0000 0.0000 -0.0000 0.0000 0.0000 -0.0000 0.0000 0.0000 -0.0000 0.0000 -0.0000 0.0000 -0.0000 0.0000 -0.0000 0.0000 0.0000 -0.0000 0.0000 0.0000 -0.0000 0.0000 0.0000 -0.0000 0.0000 0.0000 -0.0000 0.0000 0.0000 -0.0000 0.0000 0.0000 -0.0000 0.0000 0.0000 -0.0000 0.0000 0.0000 -0.0000 0.0000 -0.0000 0.0000 -0.0000 0.0000 -0.0000 0.0000 0.0000 -0.0000 0.0000 0.0000 -0.0000 0.0000 0.0000 -0.0000 0.0000 0.0000 -0.0000 0.0000 0.0000 -0.0000 0.0000 0.0000 -0.0000 0.0000 0.0000 -0.0000 0.0000 0.0000 -0.0000 0.0000 0.0000 -0.0000 0.0000 0.0000 -0.0000 0.0000 0.0000 -0.0000 0.0000 0.0000 -0.0000 0.0000 0.0000 -0.0000 0.0000 -0.0000 0.0000 -0.0000 0.0000 -0.0000 0.0000 0.0000 -0.0000 0.0000 0.0000 -0.0000 0.0000 0.0000 -0.0000 0.0000 0.0000 -0.0000 0.0000 0.0000 -0.0000 0.0000 0.0000 -0.0000 0.0000 0.0000 -0.0000 0.0000 0.0000 -0.0000 0.0000 0.0000 -0.0000 0.0000 0.0000 -0.0000 0.0000 0.0000 -0.0000 0.0000 0.0000 -0.0000 0.0000 -11.8006 4.6927 -16.8413 -69.3635 19.2280 -3.0062 -1.9905 0.0000 -0.0000 -8.5900 -3.8391 -24.9107 -1.1140 4.8175 8.3033 13.7825 8.0955 12.9059 -3.9207 -7.4624 1.0680 -13.2915 -1.3174 0.0000 -19.2312 0.0000 -0.0000 -18.6936 -0.0000 -0.0000 -3.3585 -4.0577 0.5083 -18.4704 -0.0000 0.0000 -10.1249 0.0000 0.0000 -20.0134 -0.9709 -0.0000 -22.0185 -0.0000 0.0000 -18.0914 0.0000 0.0000 -25.8702 0.5263 -0.2906 -19.3491 -0.0000 0.0000 -18.5783 0.0000 -0.0000 14.1574 4.9880 14.5305 61.0590 29.2840 2.4069 6.6197 -0.0000 -0.0000 9.6033 0.2472 -13.7215 -8.4939 4.9212 0.5385 -12.8110 8.9349 -16.2734 0.8060 -9.7645 4.0762 5.4772 4.0466 0.5126 19.6755 0.0000 0.0000 10.3154 0.0000 0.0000 13.7147 1.3228 0.0000 19.6078 -0.0000 0.0000 20.9682 -0.0000 0.0000 19.0841 0.8760 0.0000 23.2203 -0.0000 -0.0000 20.4236 0.0000 0.0000 25.2089 -0.5667 -0.0269 19.6172 -0.0000 -0.0000 18.8421 -0.0000 -0.0000 -11.2953 14.7374 9.8179 14.2127 1.8801 4.1957 -0.1124 0.4786 -7.5546 -4.9191 0.0000 0.0000 -0.3997 -10.2936 2.6046 10.3293 -9.9338 -3.2872 -5.7523 -2.0830 3.3025 -7.4298 0.0000 0.0000 
-0.3716 95.4883 0.2836 -3.4170 -1.9963 -4.6456 3.2755 1.5275 1.5533 1.1315 0.3148 1.3042 1.1108 0.3390 1.3027 5.4019 0.0403 0.3910 -0.0000 0.0000 -0.0000 -7.9647 1.7157 -0.1118 0.0000 -0.0000 0.0000 0.0000 -0.0000 0.0000 0.0000 0.0000 -0.7385 0.0000 -0.0000 0.0000 0.0000 -0.0000 0.0000 0.0000 -0.0000 0.0000 0.0000 -0.0000 0.0000 0.0000 -0.0000 0.0000 -0.0000 0.0000 -0.0000 0.0000 -0.0000 0.0000 0.0000 -0.0000 0.0000 0.0000 -0.0000 0.0000 0.0000 -0.0000 0.0000 0.0000 -0.0000 0.0000 0.0000 -0.0000 0.0000 0.0000 -0.0000 0.0000 0.0000 -0.0000 0.0000 0.0000 -0.0000 0.0000 -0.0000 0.0000 -0.0000 0.0000 -0.0000 0.0000 0.0000 -0.0000 0.0000 0.0000 -0.0000 0.0000 0.0000 -0.0000 0.0000 0.0000 -0.0000 0.0000 0.0000 -0.0000 0.0000 0.0000 -0.0000 0.0000 0.0000 -0.0000 0.0000 0.0000 -0.0000 0.0000 0.0000 -0.0000 0.0000 0.0000 -0.0000 0.0000 0.0000 -0.0000 0.0000 0.0000 -0.0000 0.0000 0.0000 -0.0000 0.0000 -0.0000 0.0000 -0.0000 0.0000 -0.0000 0.0000 0.0000 -0.0000 0.0000 0.0000 -0.0000 0.0000 0.0000 -0.0000 0.0000 0.0000 -0.0000 0.0000 0.0000 -0.0000 0.0000 0.0000 -0.0000 0.0000 0.0000 -0.0000 0.0000 0.0000 -0.0000 0.0000 0.0000 -0.0000 0.0000 0.0000 -0.0000 0.0000 0.0000 -0.0000 0.0000 0.0000 -0.0000 0.0000 -11.8012 4.6922 -16.8237 -68.8399 18.2292 -2.7052 -2.5889 -0.0000 0.0000 -8.7591 -3.6921 -22.7594 -0.9795 4.8488 8.0496 13.2228 7.5938 11.7005 -3.4488 -7.5250 0.8393 -13.8664 -1.3042 0.0000 -20.7525 0.0000 0.0000 -18.7873 0.0000 -0.0000 -2.3107 -4.0765 0.5649 -19.2902 -0.0000 -0.0000 -11.9955 0.0000 0.0000 -21.8948 -1.0504 0.0000 -22.8379 -0.0000 -0.0000 -18.1329 0.0000 0.0000 -27.4720 0.5005 -0.5227 -21.2651 -0.0000 0.0000 -20.6306 0.0000 0.0000 14.1293 4.9818 14.5189 60.7359 28.3783 2.1940 6.6329 -0.0000 -0.0000 9.3924 0.1960 -11.9635 -8.4941 4.9212 0.5386 -12.8113 8.9353 -16.2745 0.8062 -9.7646 4.0762 7.0999 4.0276 0.5913 22.0408 -0.0000 0.0000 12.5702 0.0000 -0.0000 14.9472 1.3222 0.0000 21.7681 0.0000 0.0000 23.7417 -0.0000 0.0000 20.0015 0.8498 -0.0000 25.5856 -0.0000 0.0000 23.2123 0.0000 0.0000 26.1889 -0.5760 -0.0068 21.8019 -0.0000 -0.0000 21.1588 0.0000 -0.0000 -11.3431 14.8645 9.2797 14.5511 1.7520 4.1855 -0.3286 0.2631 -7.6426 -4.9694 -0.0000 0.0000 -2.2493 -10.2629 1.7448 14.0572 -9.9384 -3.3049 -7.6686 -2.7675 3.6188 -7.5105 0.0000 0.0000 
